<mxfile host="app.diagrams.net" modified="2021-03-06T18:14:01.277Z" agent="5.0 (Windows NT 10.0; Win64; x64) AppleWebKit/537.36 (KHTML, like Gecko) Chrome/88.0.4324.190 Safari/537.36" etag="iKmy0eDhyAfsy-FHlEd3" version="14.4.4" type="github">
  <diagram id="vwgKSmRIo_Ues2hE1JJ-" name="Page-1">
    <mxGraphModel dx="595" dy="747" grid="1" gridSize="10" guides="1" tooltips="1" connect="1" arrows="1" fold="1" page="1" pageScale="1" pageWidth="827" pageHeight="1169" math="0" shadow="0">
      <root>
        <mxCell id="0" />
        <mxCell id="1" parent="0" />
        <mxCell id="ew-RNvsa-7Ur00uTDpbD-1" value="tcal&lt;br&gt;.getTime()&lt;br&gt;.after(dcal.getTime())" style="edgeStyle=none;rounded=0;orthogonalLoop=1;jettySize=auto;html=1;" parent="1" source="ew-RNvsa-7Ur00uTDpbD-3" target="ew-RNvsa-7Ur00uTDpbD-7" edge="1">
          <mxGeometry relative="1" as="geometry" />
        </mxCell>
        <mxCell id="ew-RNvsa-7Ur00uTDpbD-2" value="! tcal&lt;br&gt;.getTime()&lt;br&gt;.after(dcal.getTime())" style="edgeStyle=none;rounded=0;orthogonalLoop=1;jettySize=auto;html=1;" parent="1" source="ew-RNvsa-7Ur00uTDpbD-3" target="ew-RNvsa-7Ur00uTDpbD-5" edge="1">
          <mxGeometry relative="1" as="geometry" />
        </mxCell>
        <mxCell id="ew-RNvsa-7Ur00uTDpbD-3" value="1" style="ellipse;whiteSpace=wrap;html=1;aspect=fixed;" parent="1" vertex="1">
          <mxGeometry x="1201" y="120" width="80" height="80" as="geometry" />
        </mxCell>
        <mxCell id="ew-RNvsa-7Ur00uTDpbD-4" value="" style="endArrow=classic;html=1;entryX=0.5;entryY=0;entryDx=0;entryDy=0;" parent="1" target="ew-RNvsa-7Ur00uTDpbD-3" edge="1">
          <mxGeometry x="-0.1111" width="50" height="50" relative="1" as="geometry">
            <mxPoint x="1241" y="40" as="sourcePoint" />
            <mxPoint x="430" y="130" as="targetPoint" />
            <mxPoint as="offset" />
          </mxGeometry>
        </mxCell>
        <mxCell id="ew-RNvsa-7Ur00uTDpbD-5" value="3" style="ellipse;shape=doubleEllipse;whiteSpace=wrap;html=1;aspect=fixed;" parent="1" vertex="1">
          <mxGeometry x="1201" y="440" width="80" height="80" as="geometry" />
        </mxCell>
        <mxCell id="ew-RNvsa-7Ur00uTDpbD-7" value="2" style="ellipse;shape=doubleEllipse;whiteSpace=wrap;html=1;aspect=fixed;" parent="1" vertex="1">
          <mxGeometry x="1040" y="280" width="80" height="80" as="geometry" />
        </mxCell>
        <mxCell id="ew-RNvsa-7Ur00uTDpbD-8" value="&lt;b style=&quot;font-size: 11px&quot;&gt;Date&amp;nbsp;&lt;/b&gt;&lt;span style=&quot;font-size: 11px ; background-color: rgb(255 , 255 , 255)&quot;&gt;d1&lt;/span&gt;&lt;br style=&quot;font-size: 11px&quot;&gt;&lt;b style=&quot;font-size: 11px&quot;&gt;Date&amp;nbsp;&lt;/b&gt;&lt;span style=&quot;font-size: 11px ; background-color: rgb(255 , 255 , 255)&quot;&gt;d2&lt;/span&gt;&lt;br&gt;tcal.setTime(d1)&lt;br&gt;dcal.setTime(d2)" style="text;html=1;strokeColor=none;fillColor=none;align=center;verticalAlign=middle;whiteSpace=wrap;rounded=0;" parent="1" vertex="1">
          <mxGeometry x="1280" y="120" width="119" height="80" as="geometry" />
        </mxCell>
        <mxCell id="ew-RNvsa-7Ur00uTDpbD-9" value="return false" style="text;html=1;strokeColor=none;fillColor=none;align=center;verticalAlign=middle;whiteSpace=wrap;rounded=0;" parent="1" vertex="1">
          <mxGeometry x="1281" y="470" width="79" height="20" as="geometry" />
        </mxCell>
        <mxCell id="uqKZguw8mDDYcJdmDCvS-1" value="return true" style="text;html=1;strokeColor=none;fillColor=none;align=center;verticalAlign=middle;whiteSpace=wrap;rounded=0;" parent="1" vertex="1">
          <mxGeometry x="961" y="310" width="79" height="20" as="geometry" />
        </mxCell>
      </root>
    </mxGraphModel>
  </diagram>
</mxfile>
